<svg width="500" height="500" viewBox="0 0 500 500" fill="none" xmlns="http://www.w3.org/2000/svg">
<g clip-path="url(#clip0_1_3)">
<g opacity="0.4">
<path d="M474.265 314.26C470.683 293.419 456.521 276.259 443.9 259.291C431.279 242.324 419.239 222.734 421.02 201.663C423.58 171.368 453.802 148.458 455.07 118.081C456.173 91.661 433.339 68.636 407.701 62.159C382.063 55.682 354.862 62.445 330.478 72.675C306.094 82.906 283.156 96.606 258.069 104.965C221.902 117.015 183.086 117.413 145.06 120.108C117.083 122.091 87.82 125.884 65.032 142.235C47.557 154.774 35.183 174.597 32.835 195.977C30.487 217.357 38.622 239.898 54.902 253.954C80.133 275.74 117.53 274.032 150.517 269.228C183.504 264.424 219.134 258.148 248.629 273.681C278.171 289.238 293.373 322.507 317.907 345.153C344.739 369.92 385.645 379.582 421.485 381.873C455.182 384.026 479.609 345.353 474.265 314.26Z" fill="#969696"/>
<path d="M77.516 284.904C67.463 279.199 57.41 273.494 47.357 267.789C44.043 265.908 40.505 263.97 36.697 264.114C29.633 264.381 24.677 272.108 25.015 279.169C25.353 286.23 29.51 292.499 33.947 298.002C39.739 305.186 46.372 311.863 54.407 316.402C62.442 320.94 72.027 323.196 81.045 321.239C87.785 319.776 100.586 312.873 99.906 304.504C99.234 296.225 83.609 288.362 77.516 284.904Z" fill="#969696"/>
</g>
<path d="M91.985 149.4C91.983 149.4 91.981 149.4 91.979 149.4L91.743 149.399L91.751 148.585L91.98 148.586C91.982 148.586 91.985 148.586 91.985 148.586C93.782 148.586 95.575 148.393 97.316 148.012L97.49 148.807C95.692 149.2 93.84 149.4 91.985 149.4ZM86.008 148.701C84.131 148.253 82.303 147.59 80.574 146.731L80.937 146.002C82.611 146.834 84.38 147.476 86.197 147.909L86.008 148.701ZM102.958 146.937L102.609 146.201C104.293 145.403 105.891 144.41 107.36 143.25L107.865 143.889C106.347 145.088 104.697 146.113 102.958 146.937ZM75.723 143.591C74.231 142.367 72.876 140.974 71.695 139.449L72.338 138.95C73.482 140.426 74.795 141.776 76.239 142.96L75.723 143.591ZM111.968 139.824L111.333 139.314C112.507 137.856 113.515 136.267 114.33 134.589L115.062 134.944C114.222 136.677 113.18 138.319 111.968 139.824ZM68.692 134.515C67.881 132.764 67.27 130.918 66.875 129.03L67.672 128.863C68.054 130.691 68.647 132.477 69.431 134.173L68.692 134.515ZM116.983 129.491L116.189 129.31C116.603 127.498 116.814 125.628 116.814 123.751H117.628C117.628 125.688 117.411 127.62 116.983 129.491ZM67.149 123.293L66.335 123.279C66.37 121.343 66.622 119.416 67.085 117.551L67.875 117.747C67.427 119.552 67.183 121.418 67.149 123.293ZM116.377 119.086C116.028 117.251 115.47 115.454 114.716 113.745L115.461 113.417C116.239 115.183 116.816 117.04 117.176 118.935L116.377 119.086ZM69.832 112.504L69.106 112.135C69.98 110.417 71.051 108.795 72.29 107.312L72.915 107.834C71.715 109.27 70.678 110.841 69.832 112.504ZM111.897 108.914C110.78 107.417 109.492 106.044 108.07 104.833L108.598 104.213C110.067 105.463 111.397 106.882 112.55 108.428L111.897 108.914ZM76.961 103.97L76.468 103.322C78.005 102.153 79.674 101.159 81.43 100.365L81.765 101.107C80.065 101.876 78.449 102.839 76.961 103.97ZM103.429 101.706C101.77 100.843 100.013 100.169 98.205 99.702L98.409 98.914C100.276 99.396 102.092 100.092 103.805 100.984L103.429 101.706ZM87.091 99.396L86.931 98.598C88.581 98.268 90.277 98.101 91.974 98.101C92.218 98.101 92.451 98.104 92.688 98.111L92.666 98.925C92.436 98.918 92.192 98.901 91.974 98.916C90.33 98.916 88.687 99.078 87.091 99.396Z" fill="#2E363D"/>
<path d="M116 145.735C120.272 145.735 123.735 142.272 123.735 138C123.735 133.728 120.272 130.265 116 130.265C111.728 130.265 108.265 133.728 108.265 138C108.265 142.272 111.728 145.735 116 145.735Z" fill="#2E363D"/>
<path d="M148 179.107C151.373 179.107 154.107 176.373 154.107 173C154.107 169.627 151.373 166.893 148 166.893C144.627 166.893 141.893 169.627 141.893 173C141.893 176.373 144.627 179.107 148 179.107Z" fill="#2E363D"/>
<path d="M158.992 191.728C158.508 191.728 158.023 191.697 157.548 191.634L157.654 190.827C159.464 191.065 161.337 190.811 163.017 190.087L163.339 190.834C161.965 191.427 160.502 191.728 158.992 191.728ZM152.166 189.352C150.609 188.116 149.415 186.485 148.713 184.635L149.474 184.346C150.124 186.059 151.231 187.569 152.673 188.713L152.166 189.352ZM167.9 187.177L167.241 186.699C168.319 185.211 168.973 183.458 169.132 181.628L169.943 181.699C169.771 183.676 169.065 185.57 167.9 187.177ZM148.814 180.735H148C148 178.746 148.537 176.797 149.553 175.099L150.252 175.517C149.311 177.089 148.814 178.893 148.814 180.735ZM168.157 176.305C167.357 174.653 166.123 173.246 164.588 172.233L165.036 171.553C166.693 172.646 168.025 174.167 168.89 175.949L168.157 176.305ZM154.163 171.773L153.776 171.057C155.509 170.121 157.518 169.666 159.475 169.753L159.439 170.567C157.631 170.489 155.768 170.907 154.163 171.773Z" fill="#2E363D"/>
<path d="M406.182 102.006C406.182 105.154 403.63 107.706 400.482 107.706C397.334 107.706 394.782 105.154 394.782 102.006C394.782 98.858 397.334 96.306 400.482 96.306C403.63 96.306 406.182 98.858 406.182 102.006Z" fill="#2E363D"/>
<path d="M412.977 123.815C411.006 123.668 409.123 123.124 407.38 122.199L407.762 121.48C409.405 122.351 411.18 122.864 413.038 123.002L412.977 123.815ZM418.753 123.062L418.484 122.294C420.237 121.682 421.819 120.728 423.188 119.459L423.741 120.055C422.289 121.401 420.611 122.413 418.753 123.062ZM402.9 118.476C401.667 116.928 400.786 115.177 400.28 113.272L401.067 113.064C401.544 114.859 402.375 116.509 403.537 117.968L402.9 118.476ZM427.115 115.307L426.369 114.981C427.112 113.283 427.488 111.475 427.488 109.605H428.302C428.303 111.588 427.903 113.506 427.115 115.307ZM427.41 108.14C427.209 106.29 426.637 104.534 425.71 102.92L426.416 102.514C427.4 104.226 428.006 106.089 428.219 108.052L427.41 108.14ZM400.769 107.58L399.964 107.458C400.258 105.507 400.944 103.671 402 101.999L402.689 102.435C401.693 104.01 401.047 105.741 400.769 107.58ZM422.06 98.816C420.563 97.703 418.886 96.927 417.075 96.512L417.258 95.718C419.178 96.159 420.958 96.982 422.545 98.162L422.06 98.816ZM406.508 98.487L406.05 97.814C407.686 96.701 409.498 95.955 411.436 95.595L411.584 96.395C409.758 96.735 408.05 97.439 406.508 98.487Z" fill="#2E363D"/>
<path d="M209.705 99.344L204.605 101.974L204.342 101.464C203.894 100.596 203.629 99.841 203.547 99.198C203.465 98.555 203.503 97.91 203.661 97.261C203.82 96.613 204.288 95.375 205.067 93.546C205.487 92.582 205.57 91.853 205.317 91.361C205.063 90.869 204.721 90.561 204.289 90.438C203.857 90.315 203.346 90.406 202.756 90.71C202.121 91.038 201.704 91.519 201.504 92.154C201.305 92.789 201.417 93.66 201.841 94.767L196.301 96.808C195.492 94.801 195.393 92.901 196.003 91.108C196.613 89.315 198.171 87.773 200.676 86.48C202.627 85.474 204.411 85.069 206.03 85.265C208.226 85.526 209.797 86.573 210.743 88.408C211.135 89.169 211.303 90.011 211.247 90.934C211.191 91.858 210.777 93.164 210.006 94.853C209.471 96.035 209.197 96.904 209.184 97.46C209.171 98.019 209.345 98.646 209.705 99.344ZM205.129 103.42L210.592 100.603L213.077 105.421L207.614 108.238L205.129 103.42Z" fill="#2E363D"/>
<path d="M242.019 68.261L238.348 69.121L238.262 68.754C238.116 68.129 238.068 67.606 238.118 67.183C238.168 66.76 238.296 66.355 238.501 65.967C238.706 65.579 239.203 64.865 239.991 63.824C240.413 63.277 240.583 62.826 240.5 62.472C240.417 62.118 240.248 61.867 239.993 61.72C239.738 61.573 239.398 61.549 238.972 61.648C238.515 61.755 238.172 61.995 237.943 62.368C237.714 62.741 237.646 63.314 237.739 64.087L233.882 64.501C233.688 63.093 233.929 61.866 234.605 60.821C235.281 59.776 236.52 59.043 238.324 58.62C239.728 58.291 240.93 58.319 241.93 58.703C243.288 59.221 244.121 60.14 244.43 61.46C244.558 62.007 244.531 62.571 244.347 63.151C244.163 63.731 243.691 64.497 242.929 65.45C242.399 66.118 242.085 66.628 241.988 66.98C241.891 67.331 241.901 67.758 242.019 68.261ZM238.451 70.126L242.383 69.205L243.195 72.673L239.263 73.594L238.451 70.126Z" fill="#2E363D"/>
<path d="M280.054 61.556L275.686 60.225L275.819 59.788C276.046 59.045 276.314 58.467 276.624 58.055C276.934 57.643 277.314 57.296 277.764 57.014C278.214 56.732 279.169 56.286 280.628 55.676C281.403 55.359 281.855 54.99 281.983 54.569C282.111 54.147 282.087 53.782 281.909 53.472C281.731 53.162 281.389 52.93 280.884 52.776C280.34 52.61 279.835 52.653 279.369 52.905C278.903 53.157 278.483 53.715 278.11 54.582L273.818 52.671C274.471 51.078 275.469 49.939 276.813 49.256C278.156 48.572 279.901 48.558 282.046 49.212C283.717 49.721 284.959 50.481 285.774 51.491C286.881 52.859 287.196 54.328 286.717 55.899C286.518 56.55 286.147 57.124 285.602 57.62C285.057 58.116 284.096 58.631 282.719 59.166C281.758 59.543 281.119 59.887 280.803 60.196C280.486 60.505 280.236 60.958 280.054 61.556ZM275.183 61.34L279.862 62.766L278.604 66.893L273.926 65.467L275.183 61.34Z" fill="#2E363D"/>
<path d="M309.681 92.851L305.736 90.551L305.966 90.156C306.357 89.485 306.751 88.984 307.148 88.654C307.544 88.324 307.994 88.074 308.497 87.903C309 87.732 310.031 87.518 311.592 87.259C312.419 87.129 312.943 86.874 313.165 86.493C313.387 86.112 313.447 85.751 313.345 85.409C313.243 85.067 312.964 84.762 312.507 84.496C312.015 84.21 311.514 84.135 311.003 84.273C310.491 84.411 309.955 84.858 309.393 85.615L305.655 82.768C306.657 81.368 307.89 80.489 309.354 80.133C310.818 79.777 312.52 80.163 314.458 81.293C315.967 82.173 317.001 83.198 317.562 84.368C318.325 85.954 318.293 87.456 317.466 88.875C317.123 89.463 316.629 89.936 315.985 90.293C315.341 90.65 314.287 90.931 312.824 91.135C311.802 91.281 311.102 91.469 310.722 91.697C310.343 91.927 309.996 92.311 309.681 92.851ZM304.99 91.521L309.215 93.984L307.042 97.711L302.817 95.248L304.99 91.521Z" fill="#2E363D"/>
<path d="M254.933 99.044C254.933 99.044 265.048 84.287 277.7 91.644C293.538 100.854 274.41 122.795 286.117 129.144C297.824 135.493 309.927 135.987 313.3 153.549C317.71 176.51 276.179 208.789 241.059 188.353C205.94 167.916 218.433 129.668 234.926 122.055C254.769 112.894 254.933 99.044 254.933 99.044Z" fill="#121D30"/>
<path d="M269.355 138.206V153.948C269.355 156.573 268.288 158.949 266.566 160.67C264.854 162.391 262.479 163.459 259.854 163.459C254.603 163.459 250.353 159.199 250.353 153.949V138.207H269.355V138.206Z" fill="#D28A7B"/>
<path d="M229.589 127.415C230.378 131.267 234.14 133.75 237.991 132.962C241.843 132.173 244.326 128.411 243.538 124.56C242.749 120.708 238.987 118.225 235.136 119.013C231.284 119.801 228.8 123.563 229.589 127.415Z" fill="#D28A7B"/>
<path d="M240.268 115.494V127.495C240.268 127.495 235.503 123.262 235.635 114.929L240.268 115.494Z" fill="#121D30"/>
<path d="M231.54 124.716L237.181 128.533" stroke="#121D30" stroke-width="0.75" stroke-miterlimit="10"/>
<path d="M270.809 125.987C271.598 129.839 275.359 132.322 279.211 131.533C283.063 130.744 285.546 126.983 284.757 123.131C283.968 119.279 280.207 116.796 276.355 117.584C272.504 118.373 270.021 122.135 270.809 125.987Z" fill="#D28A7B"/>
<path d="M277.784 124.559C277.784 124.559 281.856 120.106 280.425 109.547H274.717L277.784 124.559Z" fill="#121D30"/>
<path d="M276.611 127.7L282.134 122.35" stroke="#121D30" stroke-width="0.75" stroke-miterlimit="10"/>
<path d="M259.026 96.736C248.666 96.736 240.268 105.134 240.268 115.494V129.151C240.268 132.037 241.754 134.72 244.2 136.25L254.583 142.747C257.3 144.448 260.75 144.448 263.468 142.747L273.851 136.25C276.298 134.719 277.783 132.036 277.783 129.151V115.494C277.784 105.134 269.386 96.736 259.026 96.736Z" fill="#D28A7B"/>
<path d="M250.353 140.257L254.583 142.904C257.3 144.604 260.75 144.604 263.468 142.904" stroke="#121D30" stroke-width="0.75" stroke-miterlimit="10"/>
<path d="M257.454 96.736L262.161 129.149H256.255" stroke="#121D30" stroke-width="0.75" stroke-miterlimit="10"/>
<path d="M276.948 125.025C276.948 127.676 274.799 129.825 272.148 129.825C269.497 129.825 267.348 127.676 267.348 125.025C267.348 122.374 269.497 120.225 272.148 120.225C274.8 120.225 276.948 122.374 276.948 125.025Z" fill="#CB705D"/>
<path d="M251.399 125.025C251.399 127.676 249.25 129.825 246.599 129.825C243.948 129.825 241.799 127.676 241.799 125.025C241.799 122.374 243.948 120.225 246.599 120.225C249.251 120.225 251.399 122.374 251.399 125.025Z" fill="#CB705D"/>
<path d="M269.348 120.439C269.348 122.106 268.614 123.449 267.702 123.449C266.79 123.449 266.045 122.107 266.045 120.439C266.045 119.097 266.538 117.954 267.209 117.576H267.219L269.243 119.369C269.306 119.694 269.348 120.061 269.348 120.439Z" fill="#121D30"/>
<path d="M252.004 120.439C252.004 122.106 251.27 123.449 250.358 123.449C249.435 123.449 248.701 122.107 248.701 120.439C248.701 119.957 248.764 119.506 248.879 119.107L251.197 117.87C251.689 118.394 252.004 119.348 252.004 120.439Z" fill="#121D30"/>
<path d="M280.955 94.184C268.3 86.828 254.928 99.039 254.928 99.039C254.928 99.039 254.765 112.896 234.926 122.051C230.743 123.984 225.137 130.862 222.512 135.046C222.512 135.046 228.31 118.32 230.137 107.502C231.974 96.674 241.59 98.347 241.59 98.347C241.59 98.347 247.417 84.105 263.534 84.173C274.699 84.221 280.955 94.184 280.955 94.184Z" fill="#121D30"/>
<path d="M268.101 108.684C270.395 107.191 271.841 107.523 271.498 110.707L268.101 108.684Z" fill="#121D30"/>
<path d="M245.186 111.395C244.67 108.707 245.523 107.493 248.342 109.012L245.186 111.395Z" fill="#121D30"/>
<path d="M255.996 134.609C258.486 131.242 261.624 132.624 262.42 134.609" stroke="#121D30" stroke-width="0.75" stroke-miterlimit="10"/>
<path d="M339.619 198.481C342.705 194.608 342.068 188.967 338.195 185.88L303.353 158.113C299.48 155.027 293.839 155.664 290.752 159.537C287.666 163.41 288.303 169.051 292.176 172.138L327.018 199.905C330.891 202.992 336.532 202.354 339.619 198.481Z" fill="#D28A7B"/>
<path d="M181.57 200.01C178.484 196.137 179.121 190.495 182.994 187.409L217.836 159.642C221.709 156.556 227.351 157.193 230.437 161.066C233.523 164.939 232.886 170.581 229.013 173.667L194.171 201.434C190.298 204.52 184.656 203.883 181.57 200.01Z" fill="#D28A7B"/>
<path d="M288.072 149.106L262.161 157.714V157.99L235.419 149.105C226.952 146.292 218.865 154.264 221.557 162.771L241.622 226.164H262.161H277.495L301.933 162.771C304.626 154.265 296.539 146.293 288.072 149.106Z" fill="#EDB837"/>
<path d="M272.856 167.122L275.526 149.525L245.334 146.596L248.14 167.122H272.856Z" fill="#EDB837"/>
<path d="M247.526 157.901C251.821 166.044 258.465 169.753 263.857 169.753C267.982 169.753 271.353 167.685 273.415 164.102C272.305 174.663 269.282 190.305 262.901 190.305C262.451 190.305 261.979 190.227 261.497 190.074C256.986 188.639 253.009 181.703 249.996 170.017C248.847 165.563 248.045 161.189 247.526 157.901ZM246.014 152.374C246.014 152.374 249.599 187.076 261.27 190.79C261.837 190.97 262.381 191.056 262.902 191.056C273.101 191.056 274.634 158.151 274.634 158.151C273.515 165.447 269.048 169.003 263.857 169.003C257.304 169.003 249.598 163.338 246.014 152.374Z" fill="white"/>
<path d="M234.41 215.111L284.275 212.408L279.905 225.042L238.393 224.593L234.41 215.111Z" fill="#2E363D"/>
<path d="M279.905 225.042C279.905 225.042 296.986 240.834 297.998 269H221.615C221.615 242.529 238.394 224.593 238.394 224.593L279.905 225.042Z" fill="#2E363D"/>
<path d="M260.306 227.892L261.329 248.8C261.329 248.8 257.258 247.154 257.356 240.146" stroke="white" stroke-width="0.75" stroke-miterlimit="10"/>
<path d="M289.054 236.68H276.679C276.679 236.68 282.446 250.16 294.714 248.978" stroke="white" stroke-width="0.75" stroke-miterlimit="10"/>
<path d="M223.438 250.915C223.438 250.915 232.575 253.116 240.677 240.135" stroke="white" stroke-width="0.75" stroke-miterlimit="10"/>
<path d="M248.447 222.886H239.806V227.207H248.447V222.886Z" fill="#2E363D"/>
<path d="M277.742 222.886H269.101V227.207H277.742V222.886Z" fill="#2E363D"/>
<path d="M265.59 222.886H252.462V227.207H265.59V222.886Z" fill="#2E363D"/>
<path d="M262.249 222.017H255.802V228.075H262.249V222.017Z" fill="white"/>
<path d="M184.279 186.362C189.577 183.048 196.558 184.657 199.871 189.955L222.4 230.49L215.5 238.478L180.686 201.955C177.372 196.657 178.981 189.676 184.279 186.362Z" fill="#D28A7B"/>
<path d="M219.593 228.012C228.716 227.974 236.965 223.378 236.965 223.378L242.092 239.394C227.076 245.087 219.481 241.336 215.477 238.502L219.593 228.012Z" fill="#D28A7B"/>
<path d="M236.966 223.378C236.966 223.378 245.374 222.63 251.378 226.597L252.462 236.597C252.462 236.597 245.449 234.304 240.951 235.827C240.951 235.827 248.713 237.3 251.72 240.566L249.591 242.713C249.591 242.713 242.879 239.747 235.613 240.775L236.966 223.378Z" fill="#D28A7B"/>
<path d="M251.591 229.147C251.591 229.147 244.585 226.878 239.319 226.729" stroke="#121D30" stroke-width="0.75" stroke-miterlimit="10"/>
<path d="M252.077 233.054C252.077 233.054 245.906 230.566 239.495 231.034" stroke="#121D30" stroke-width="0.75" stroke-miterlimit="10"/>
<path d="M208.113 156.898L219.851 169.514L226.721 187.269L214.741 173.68L208.113 156.898Z" fill="#E69230"/>
<path d="M225.117 150.974L204.864 163.179L219.1 186.581L232.392 177.517L225.117 150.974Z" fill="#EDB837"/>
<path d="M208.113 156.898L214.741 173.68L226.721 187.269L216.666 190.987L207.263 178.139L200.703 161.741L208.113 156.898Z" fill="white"/>
<path d="M202.688 195.022L199.871 189.955" stroke="#121D30" stroke-width="0.75" stroke-miterlimit="10"/>
<path d="M336.91 184.833C331.612 181.519 324.631 183.128 321.318 188.426L298.789 228.961L305.689 236.949L340.504 200.426C343.816 195.128 342.208 188.147 336.91 184.833Z" fill="#D28A7B"/>
<path d="M301.596 226.484C292.473 226.446 284.224 221.85 284.224 221.85L279.097 237.866C294.113 243.559 301.708 239.808 305.712 236.974L301.596 226.484Z" fill="#D28A7B"/>
<path d="M284.223 221.85C284.223 221.85 275.815 221.102 269.811 225.069L268.726 235.069C268.726 235.069 275.739 232.776 280.237 234.299C280.237 234.299 272.475 235.772 269.468 239.038L271.597 241.185C271.597 241.185 278.309 238.219 285.575 239.247L284.223 221.85Z" fill="#D28A7B"/>
<path d="M269.598 227.618C269.598 227.618 276.604 225.349 281.87 225.2" stroke="#121D30" stroke-width="0.75" stroke-miterlimit="10"/>
<path d="M269.111 231.525C269.111 231.525 275.282 229.037 281.693 229.505" stroke="#121D30" stroke-width="0.75" stroke-miterlimit="10"/>
<path d="M313.076 155.369L301.338 167.986L294.467 185.74L306.448 172.151L313.076 155.369Z" fill="#E69230"/>
<path d="M296.072 149.446L316.325 161.65L302.089 185.052L288.797 175.988L296.072 149.446Z" fill="#EDB837"/>
<path d="M313.076 155.369L306.448 172.151L294.467 185.74L304.523 189.459L313.926 176.611L320.486 160.213L313.076 155.369Z" fill="white"/>
<path d="M318.501 193.493L321.317 188.426" stroke="#121D30" stroke-width="0.75" stroke-miterlimit="10"/>
<path d="M411.096 201.075C411.007 202.862 411.933 204.359 413.163 204.419C414.392 204.481 415.461 203.08 415.548 201.292C415.634 199.505 414.708 198.007 413.481 197.947C412.25 197.887 411.183 199.287 411.096 201.075Z" fill="#2E363D"/>
<path opacity="0.53" d="M406.839 201.666C407.489 203.619 409.104 204.841 410.447 204.395C411.792 203.948 412.355 202.002 411.705 200.05C411.056 198.096 409.442 196.875 408.098 197.32C406.754 197.767 406.19 199.712 406.839 201.666Z" fill="#2E363D"/>
<path d="M403.422 205.042C402.439 207.732 404.531 210.968 408.094 212.269C411.657 213.569 415.34 212.441 416.322 209.749C417.305 207.058 415.211 203.822 411.649 202.522C408.087 201.221 404.402 202.35 403.422 205.042Z" fill="#121D30"/>
<path d="M399.66 204.605C381.342 201.799 354.432 214.237 356.962 236.752C358.767 252.81 380.638 260.067 387.487 244.312C396.759 222.98 367.995 218.736 354.104 219.711C338.148 220.831 327.691 221.29 309.444 242.295C301.976 250.892 300.103 283.963 318.62 286.206" stroke="#121D30" stroke-width="0.75" stroke-miterlimit="10" stroke-dasharray="5.52 5.52"/>
<path d="M105.395 203.322C99.173 212.47 110.069 224.322 118.362 227.797C137.514 235.825 150.311 216.214 168.667 218.083C184.429 219.688 194.2 230.321 185.849 247.986C180.673 258.932 155.68 262.086 156.55 246.346" stroke="#121D30" stroke-width="0.75" stroke-miterlimit="10" stroke-dasharray="5.52 5.52"/>
<path d="M104.599 189.927C103.73 191.491 102.153 192.273 101.077 191.674C100.001 191.077 99.834 189.323 100.705 187.759C101.576 186.196 103.154 185.414 104.227 186.011C105.304 186.611 105.47 188.363 104.599 189.927Z" fill="#2E363D"/>
<path opacity="0.53" d="M107.901 192.679C106.317 193.994 104.3 194.178 103.396 193.089C102.49 191.999 103.041 190.049 104.624 188.735C106.208 187.419 108.224 187.235 109.129 188.324C110.034 189.413 109.484 191.363 107.901 192.679Z" fill="#2E363D"/>
<path d="M109.019 197.35C108.432 200.154 104.946 201.795 101.233 201.016C97.521 200.237 94.991 197.333 95.579 194.528C96.167 191.724 99.654 190.083 103.365 190.862C107.077 191.641 109.608 194.547 109.019 197.35Z" fill="#121D30"/>
<mask id="mask0_1_3" style="mask-type:luminance" maskUnits="userSpaceOnUse" x="0" y="0" width="500" height="500">
<path d="M500 0H0V500H500V0Z" fill="white"/>
</mask>
<g mask="url(#mask0_1_3)">
<path d="M414.518 279.912H86.938V523.731H414.518V279.912Z" fill="#2E363D"/>
<path d="M398.774 301.227H102.688V514.296H398.774V301.227Z" fill="#969696"/>
<path d="M439.105 409.084L423.518 420.359L398.775 408.657V385.605L414.102 374.513L439.105 409.084Z" fill="#E69230"/>
<path d="M437.886 427.154L419.648 465.717L398.775 455.844V408.657L423.518 420.359L437.886 427.154Z" fill="#EDB837"/>
<path d="M102.688 411.415V459.349L51.769 425.722L73.8 392.34L102.688 411.415Z" fill="#EDB837"/>
<path d="M413.284 421.647L430.997 429.8" stroke="#121D30" stroke-width="0.75" stroke-miterlimit="10"/>
<path d="M421.431 425.219C422.833 425.59 424.133 426.164 425.408 426.788C426.673 427.432 427.912 428.128 429.049 429.028C427.647 428.658 426.347 428.084 425.072 427.459C423.808 426.813 422.569 426.118 421.431 425.219Z" fill="#121D30"/>
<path d="M420.875 431.299L429.049 434.954" stroke="#121D30" stroke-width="0.75" stroke-miterlimit="10"/>
<path d="M406.537 386.971L415.908 380.505" stroke="#121D30" stroke-width="0.75" stroke-miterlimit="10"/>
<path d="M58.846 424.177L72.435 403.559" stroke="#121D30" stroke-width="0.75" stroke-miterlimit="10"/>
<path d="M200.658 394.895L109.785 404.679C108.42 404.826 107.194 403.839 107.048 402.474L90.29 246.841C90.143 245.476 91.13 244.25 92.495 244.103L183.368 234.319C184.733 234.172 185.959 235.159 186.106 236.524L202.863 392.158C203.01 393.523 202.023 394.748 200.658 394.895Z" fill="#969696"/>
<path d="M166.722 226.994L78.7562 266.351L144.714 413.772L232.68 374.415L166.722 226.994Z" fill="white"/>
<path d="M102.173 318.7L78.754 266.355L144.522 236.93" stroke="#121D30" stroke-width="0.75" stroke-miterlimit="10"/>
<path d="M142.149 284.98L130.575 290.443L130.029 289.286C129.099 287.317 128.568 285.612 128.435 284.173C128.302 282.734 128.437 281.298 128.841 279.866C129.245 278.434 130.386 275.71 132.265 271.695C133.277 269.579 133.52 267.962 132.993 266.845C132.466 265.728 131.726 265.016 130.774 264.708C129.822 264.4 128.676 264.563 127.335 265.195C125.893 265.876 124.926 266.916 124.432 268.316C123.938 269.716 124.12 271.666 124.977 274.166L112.47 278.282C110.825 273.745 110.753 269.502 112.254 265.554C113.755 261.606 117.348 258.29 123.033 255.606C127.459 253.517 131.469 252.754 135.062 253.317C139.936 254.07 143.356 256.528 145.321 260.691C146.136 262.417 146.444 264.307 146.247 266.362C146.05 268.417 145.025 271.296 143.174 275C141.89 277.593 141.211 279.508 141.138 280.747C141.064 281.986 141.401 283.397 142.149 284.98ZM131.631 293.706L144.027 287.855L149.188 298.789L136.792 304.64L131.631 293.706Z" stroke="#121D30" stroke-width="0.75" stroke-miterlimit="10"/>
<path d="M324.694 257.548L315.935 274.365H225.794C223.205 274.365 221.106 276.464 221.106 279.053V397.434C221.106 400.023 223.205 402.122 225.794 402.122H398.676C401.265 402.122 403.364 400.023 403.364 397.434V283.156V274.365V259.714C403.364 257.125 401.265 255.026 398.676 255.026H328.851C327.104 255.026 325.502 255.998 324.694 257.548Z" fill="#5C5C5C"/>
<path d="M398.97 258.981H225.795V392.306H398.97V258.981Z" fill="white"/>
<path d="M324.694 265.9L315.935 282.717H225.794C223.205 282.717 221.106 284.816 221.106 287.405V405.786C221.106 408.375 223.205 410.474 225.794 410.474H398.676C401.265 410.474 403.364 408.375 403.364 405.786V291.507V282.716V268.065C403.364 265.476 401.265 263.377 398.676 263.377H328.851C327.104 263.377 325.502 264.349 324.694 265.9Z" fill="#969696"/>
<path d="M334.75 263.5H389.75" stroke="#121D30" stroke-width="0.75" stroke-miterlimit="10"/>
<path d="M277.462 256.508L265.888 271.527L177.146 255.712C174.597 255.258 172.162 256.956 171.708 259.505L150.938 376.049C150.484 378.598 152.182 381.033 154.731 381.487L324.932 411.819C327.481 412.273 329.916 410.575 330.37 408.026L350.42 295.521L351.962 286.867L354.533 272.443C354.987 269.894 353.289 267.459 350.74 267.005L281.998 254.754C280.277 254.448 278.529 255.124 277.462 256.508Z" fill="#E69230"/>
<path d="M326.943 402.207L156.453 371.824L176.503 259.318L194.846 243.241L350.334 270.951L326.943 402.207Z" fill="white"/>
<path d="M176.503 259.318L194.846 243.241L199.674 263.745L176.503 259.318Z" fill="#DEDEDE"/>
<path d="M275.997 264.73L264.424 279.749L175.682 263.934C173.133 263.48 170.698 265.178 170.244 267.727L149.474 384.271C149.02 386.82 150.718 389.255 153.267 389.709L323.468 420.041C326.017 420.495 328.452 418.797 328.906 416.248L348.956 303.742L350.498 295.088L353.069 280.664C353.523 278.115 351.825 275.68 349.276 275.226L280.534 262.975C278.812 262.669 277.064 263.345 275.997 264.73Z" fill="#EDB837"/>
<path d="M337 273L280.533 262.976C278.812 262.669 277.064 263.345 275.997 264.73L264.424 279.749L185.333 266" stroke="#121D30" stroke-width="0.75" stroke-miterlimit="10"/>
<path d="M404.361 297.445H97.096V505.121H404.361V297.445Z" fill="#DEDEDE"/>
<path d="M404.361 393.925V505.121H264.935" stroke="#121D30" stroke-width="0.75" stroke-miterlimit="10"/>
<path d="M97.096 505.121V297.445H153.113H156.969" stroke="#121D30" stroke-width="0.75" stroke-miterlimit="10"/>
<path d="M350.665 485.621H388.025" stroke="#121D30" stroke-width="0.75" stroke-miterlimit="10"/>
<path d="M381.001 479.527H388.025" stroke="#121D30" stroke-width="0.75" stroke-miterlimit="10"/>
<path d="M111.975 306.575H126.767" stroke="#121D30" stroke-width="0.75" stroke-miterlimit="10"/>
<path d="M111.975 316.479H157.709" stroke="#121D30" stroke-width="0.75" stroke-miterlimit="10"/>
<path d="M292.221 418.912C301.6 395.906 290.553 369.654 267.547 360.275C244.542 350.897 218.289 361.943 208.911 384.949C199.532 407.955 210.579 434.207 233.585 443.586C256.59 452.964 282.843 441.917 292.221 418.912Z" fill="#2E363D"/>
<path d="M269.744 418.651L253.015 401.922L269.744 385.193C270.417 384.52 270.417 383.419 269.744 382.746C269.071 382.073 267.97 382.073 267.297 382.746L250.568 399.475L233.839 382.746C233.166 382.073 232.065 382.073 231.392 382.746C230.719 383.419 230.719 384.52 231.392 385.193L248.121 401.922L231.392 418.651C230.719 419.324 230.719 420.425 231.392 421.098C232.065 421.771 233.166 421.771 233.839 421.098L250.568 404.369L267.297 421.098C267.97 421.771 269.071 421.771 269.744 421.098C270.417 420.425 270.418 419.324 269.744 418.651Z" fill="white"/>
</g>
</g>
<defs>
<clipPath id="clip0_1_3">
<rect width="500" height="500" fill="white"/>
</clipPath>
</defs>
</svg>
